<svg xmlns="http://www.w3.org/2000/svg" width="20" height="20" fill="none" viewBox="0 0 20 20"><path stroke="#94A3B8" stroke-miterlimit="10" stroke-width=".75" d="M18.75 8.375v8.75l-2.384-2.392H9.208a3.175 3.175 0 0 1-3.183-3.217V8.375A3.183 3.183 0 0 1 9.208 5.19h6.358a3.183 3.183 0 0 1 3.184 3.184Z"/><path stroke="#94A3B8" stroke-miterlimit="10" stroke-width=".75" d="M13.975 4.391v.834H9.208a3.183 3.183 0 0 0-3.183 3.183v2.383H3.633l-2.383 2.35v-8.75a3.183 3.183 0 0 1 3.183-3.183h6.4a3.183 3.183 0 0 1 3.142 3.183Z"/></svg>