<svg xmlns="http://www.w3.org/2000/svg" fill="none" class="h-4 w-4 text-slate-400 transition hover:text-slate-500" viewBox="0 0 20 20"><path fill="currentColor" d="M19.721 5.235c-.105-.876-.93-1.715-1.794-1.828a64.3 64.3 0 0 0-15.854 0C1.21 3.519.383 4.359.28 5.235a41 41 0 0 0 0 9.53c.105.876.93 1.717 1.794 1.829a64.3 64.3 0 0 0 15.854 0c.864-.112 1.69-.952 1.794-1.828a41 41 0 0 0 0-9.531M8.333 12.738V7.264a.32.32 0 0 1 .496-.266l4.106 2.737a.32.32 0 0 1 0 .531l-4.106 2.737a.32.32 0 0 1-.496-.265"/></svg>