<svg xmlns="http://www.w3.org/2000/svg" fill="none" class="h-4 w-4 text-slate-400 transition hover:text-slate-500" viewBox="0 0 20 20"><path fill="currentColor" d="M4.907 19.324a.674.674 0 0 1-.673.676H1.358a.674.674 0 0 1-.677-.672V7.273c0-.374.303-.677.677-.677h2.874a.676.676 0 0 1 .674.676zM2.794 5.454a2.727 2.727 0 1 1 0-5.455 2.727 2.727 0 0 1 0 5.456m17.139 13.917a.62.62 0 0 1-.619.622H16.22a.62.62 0 0 1-.622-.619v-5.649c0-.844.248-3.694-2.206-3.694-1.9 0-2.287 1.95-2.363 2.827v6.52c0 .34-.273.617-.613.622H7.431a.62.62 0 0 1-.62-.62V7.22a.62.62 0 0 1 .618-.622h2.987c.343 0 .622.278.622.622v1.05c.706-1.06 1.75-1.874 3.982-1.874 4.942 0 4.91 4.615 4.91 7.15z"/></svg>