<svg xmlns="http://www.w3.org/2000/svg" fill="none" class="h-4 w-4 text-slate-400 transition hover:text-slate-500" viewBox="0 0 20 20"><path fill="currentColor" d="M15.18 3.916a.903.903 0 1 1 .002 1.806.903.903 0 0 1-.001-1.806M14.519 10A4.523 4.523 0 0 1 10 14.518 4.523 4.523 0 0 1 5.482 10 4.523 4.523 0 0 1 10 5.482 4.523 4.523 0 0 1 14.518 10m-1.807 0a2.711 2.711 0 1 0-5.422 0 2.711 2.711 0 0 0 5.422 0m1.867-10A5.43 5.43 0 0 1 20 5.422v9.156A5.43 5.43 0 0 1 14.578 20H5.422A5.43 5.43 0 0 1 0 14.578V5.422A5.43 5.43 0 0 1 5.422 0zm0 1.807H5.422a3.62 3.62 0 0 0-3.615 3.615v9.156a3.62 3.62 0 0 0 3.615 3.615h9.156a3.62 3.62 0 0 0 3.615-3.615V5.422a3.62 3.62 0 0 0-3.615-3.615"/></svg>