<svg xmlns="http://www.w3.org/2000/svg" width="20" height="20" fill="none" viewBox="0 0 20 20"><g clip-path="url(#a)"><path stroke="#94A3B8" stroke-miterlimit="10" stroke-width=".75" d="M1.875 13.333a8.82 8.82 0 0 1 1.909-9.55l.183-.175H.417m19.166 12.784h-3.55l.183-.175a8.82 8.82 0 0 0 1.909-9.55M6.667 1.892a8.81 8.81 0 0 1 9.55 1.892l.175.183V.417M3.608 19.583v-3.55l.175.183a8.81 8.81 0 0 0 9.592 1.892m.617-9.708H10.8V5.208L6.01 11.6H9.2v3.191z"/></g><defs><clipPath id="a"><path fill="#fff" d="M0 0h20v20H0z"/></clipPath></defs></svg>