<svg xmlns="http://www.w3.org/2000/svg" width="20" height="20" fill="none" viewBox="0 0 20 20"><g stroke="#94A3B8" stroke-width=".75" clip-path="url(#a)"><path d="m7.437 10.026.01.495.053 3.02-1.724.626v2.083H3.19v-2.083l-1.94-.625.216-9.792h5.818l.05 1.719"/><path stroke-miterlimit="10" d="M11.25 9.583V3.836c0-.738.48-1.336 1.072-1.336h5.356c.592 0 1.072.598 1.072 1.336v12.016c0 .737-.48 1.335-1.072 1.335h-5.356c-.592 0-1.072-.598-1.072-1.335v-1.935"/><path stroke-miterlimit="10" d="M16.46 3.437h-2.92a.6.6 0 0 1-.288-.069.7.7 0 0 1-.242-.205.9.9 0 0 1-.155-.306 1.1 1.1 0 0 1-.041-.357h4.372c.006.121-.008.243-.041.357a.9.9 0 0 1-.155.306.7.7 0 0 1-.242.205.6.6 0 0 1-.288.07Zm-2.085 12.188h1.25M20.5 10.25h-4.191l-2.101-3.005-3.158 5.005-3.146-6-2.1 4H-.5"/></g><defs><clipPath id="a"><path fill="#fff" d="M0 0h20v20H0z"/></clipPath></defs></svg>