<svg xmlns="http://www.w3.org/2000/svg" width="20" height="20" fill="none" viewBox="0 0 20 20"><g stroke="#94A3B8" stroke-miterlimit="10" stroke-width=".75" clip-path="url(#a)"><path d="M17.158 10q0-.66-.125-1.308l1.742-1-2.392-4.167-1.733 1a7.2 7.2 0 0 0-2.267-1.3V1.25H7.616v2.008a7.2 7.2 0 0 0-2.266 1.3l-1.734-1-2.391 4.167 1.741 1a6.9 6.9 0 0 0 0 2.617l-1.741 1 2.391 4.166 1.734-1a7.2 7.2 0 0 0 2.266 1.3v1.942h4.767v-2.008a7.2 7.2 0 0 0 2.267-1.3l1.733 1 2.392-4.167-1.742-1q.123-.632.125-1.275Z"/><path d="M8.91 11.821A2.91 2.91 0 1 0 8.91 6a2.91 2.91 0 0 0 0 5.821ZM14 14l-3.09-3.09"/></g><defs><clipPath id="a"><path fill="#fff" d="M0 0h20v20H0z"/></clipPath></defs></svg>