<svg xmlns="http://www.w3.org/2000/svg" width="20" height="20" fill="none" viewBox="0 0 20 20"><path stroke="#94A3B8" stroke-miterlimit="10" stroke-width=".75" d="M16.25 5.938v-2.27c0-.731-.61-1.324-1.364-1.324H2.614c-.753 0-1.364.593-1.364 1.324v8.602c0 .731.61 1.324 1.364 1.324H13.23m-4.48 3.75v-3.75m3.438 3.594H5.312"/><path stroke="#94A3B8" stroke-linecap="square" stroke-miterlimit="10" stroke-width=".75" d="m6.25 9.219 1.872-1.877 1.256 1.253L11.25 6.72m2.917 5.78 1.404-1.408.942.94 1.404-1.407"/><path stroke="#94A3B8" stroke-miterlimit="10" stroke-width=".75" d="M17.293 6.562h-2.502a.64.64 0 0 1-.455-.182.58.58 0 0 1-.168-.442h3.748a.56.56 0 0 1-.168.442.62.62 0 0 1-.455.182Z"/><path stroke="#94A3B8" stroke-miterlimit="10" stroke-width=".75" d="M18.05 5.938h-4.016c-.445 0-.805.458-.805 1.023v9.203c0 .565.36 1.023.805 1.023h4.016c.444 0 .805-.458.805-1.023V6.961c0-.565-.36-1.024-.805-1.024Zm-2.633 9.687h1.25"/></svg>