<svg xmlns="http://www.w3.org/2000/svg" width="20" height="20" fill="none" class="text-slate-500 transition-all duration-150 group-hover:text-blue-600" viewBox="0 0 20 20"><g fill="currentColor" clip-path="url(#a)"><path d="M10 .625A9.32 9.32 0 0 0 .667 9.958 9.32 9.32 0 0 0 10 19.292c.584 0 1.167-.084 1.667-.167l-.25-1.25c-.5.083-1 .167-1.5.167-.583 0-1.417-1-2-3.25 1.167-.25 2.333-.334 3.417-.167l.25-1.25a8.85 8.85 0 0 0-3.917.167c-.083-.917-.167-1.917-.25-2.917h11.917v-.667A9.32 9.32 0 0 0 10 .625m0 4.75a8.2 8.2 0 0 1-2-.25c.5-2.083 1.334-3.25 2-3.25.667 0 1.5 1.167 2 3.25a8.2 8.2 0 0 1-2 .25m2.25.917q.25 1.374.25 3H7.417c0-1.084.167-2.084.25-3A7.9 7.9 0 0 0 10 6.625c.75 0 1.5-.083 2.25-.333M6.834 4.708c-.667-.25-1.334-.666-1.917-1.083.917-.667 1.833-1.167 2.917-1.5-.417.667-.75 1.583-1 2.583m5.333-2.583c1.083.333 2.083.833 2.917 1.5-.584.417-1.167.833-1.834 1.083-.333-1-.666-1.916-1.083-2.583M4 4.458a7.7 7.7 0 0 0 2.5 1.5c-.167 1.084-.333 2.25-.333 3.417h-4.25A8.5 8.5 0 0 1 4 4.458m1 11.917c.583-.417 1.167-.833 1.834-1.083q.375 1.5 1 2.5c-1.084-.334-2-.75-2.834-1.417m1.584-2.333a7.7 7.7 0 0 0-2.5 1.5c-1.25-1.334-2-3-2.167-4.917H6.25c0 1.083.083 2.25.333 3.417m7.25-4.75c0-1.167-.167-2.334-.334-3.417a7.7 7.7 0 0 0 2.5-1.5c1.167 1.333 2 3 2.167 4.917z"/><path d="M10 .625a9.32 9.32 0 0 1 9.334 9.333A9.32 9.32 0 0 1 10 19.292c-.583 0-1.167-.084-1.667-.167l.25-1.25c.5.083 1 .167 1.5.167.583 0 1.416-1 2-3.25-1.167-.25-2.334-.334-3.417-.167l-.25-1.25a8.85 8.85 0 0 1 3.917.167c.083-.917.166-1.917.25-2.917H.666v-.667A9.32 9.32 0 0 1 10 .625m0 4.75a8.2 8.2 0 0 0 2-.25c-.5-2.083-1.333-3.25-2-3.25-.666 0-1.5 1.167-2 3.25q1 .25 2 .25m-2.25.917q-.25 1.374-.25 3h5.083c0-1.084-.167-2.084-.25-3A7.9 7.9 0 0 1 10 6.625c-.75 0-1.5-.083-2.25-.333m5.416-1.584c.667-.25 1.334-.666 1.918-1.083-.917-.667-1.834-1.167-2.917-1.5.417.667.749 1.583.999 2.583M7.833 2.125c-1.083.333-2.083.833-2.916 1.5.583.417 1.166.833 1.832 1.083.334-1 .668-1.916 1.085-2.583M16 4.458a7.7 7.7 0 0 1-2.5 1.5c.167 1.084.334 2.25.334 3.417h4.25A8.5 8.5 0 0 0 16 4.458m-1 11.917c-.583-.417-1.166-.833-1.833-1.083q-.375 1.5-1 2.5c1.083-.334 2-.75 2.833-1.417m-1.583-2.333q1.375.5 2.5 1.5c1.25-1.334 2-3 2.167-4.917H13.75c0 1.083-.083 2.25-.333 3.417m-7.25-4.75c0-1.167.167-2.334.333-3.417a7.7 7.7 0 0 1-2.5-1.5c-1.166 1.333-2 3-2.166 4.917z"/></g><defs><clipPath id="a"><path fill="#fff" d="M0 0h20v20H0z"/></clipPath></defs></svg>