<svg xmlns="http://www.w3.org/2000/svg" width="20" height="20" fill="none" viewBox="0 0 20 20"><g stroke="#94A3B8" stroke-miterlimit="10" stroke-width=".75" clip-path="url(#a)"><path d="M18.767 7.625v9.592a1.6 1.6 0 0 1-1.6 1.6 1.625 1.625 0 0 1-1.6-1.6V7.625z"/><path d="M17.167 18.817H2.784a1.6 1.6 0 0 1-1.6-1.6V1.233h14.383v15.984a1.625 1.625 0 0 0 1.6 1.6Z"/><path d="M12.376 9.225H4.384v3.2h7.992zm-8.792 6.392h9.592M1.184 6.025h14.383M3.584 3.634h1.6m1.591 0h1.6"/></g><defs><clipPath id="a"><path fill="#fff" d="M0 0h20v20H0z"/></clipPath></defs></svg>