<svg xmlns="http://www.w3.org/2000/svg" width="20" height="20" fill="none" class="text-slate-400" viewBox="0 0 20 20"><path stroke="currentColor" stroke-miterlimit="10" stroke-width=".75" d="M4.433 17.158a1.592 1.592 0 1 0 0-3.183 1.592 1.592 0 0 0 0 3.183Zm11.133 0a1.592 1.592 0 1 0 0-3.183 1.592 1.592 0 0 0 0 3.183Z"/><path stroke="currentColor" stroke-miterlimit="10" stroke-width=".75" d="M17.158 15.567h1.592V10.8l-1.592-4.775h-3.183v9.542m2.391-3.975h2.384"/><path stroke="currentColor" stroke-miterlimit="10" stroke-width=".75" d="M16.367 2.842h-2.392v8.75H3.633L1.25 9.2V4.433h9.55l1.583-1.591h1.592M7.616 7.617v3.975M4.434 7.617v3.975m6.358-3.975v3.975m-4.767 3.975h7.95v-3.975H1.25v3.975h1.592"/></svg>