<svg xmlns="http://www.w3.org/2000/svg" width="20" height="20" fill="none" class="text-slate-400" viewBox="0 0 20 20"><path stroke="currentColor" stroke-miterlimit="10" stroke-width=".75" d="M10.833 7.617a3.173 3.173 0 0 0-3.216-3.184H4.433A3.183 3.183 0 0 0 1.25 7.617a1.59 1.59 0 0 0 .833 1.366v4.809a1.775 1.775 0 0 0 1.784 1.775h4.358A1.775 1.775 0 0 0 10 13.792V8.983a1.57 1.57 0 0 0 .833-1.366Zm1.55-3.184h3.184a3.183 3.183 0 0 1 3.183 3.183 1.58 1.58 0 0 1-.792 1.367v4.8a1.784 1.784 0 0 1-1.783 1.783h-4.392M10 13.783v-4.8m-4.775-4.55h8.75m-7.95 11.134h7.159M10 9.209h5.567"/></svg>