<svg xmlns="http://www.w3.org/2000/svg" width="20" height="20" fill="none" class="text-slate-400" viewBox="0 0 20 20"><path stroke="currentColor" stroke-miterlimit="10" stroke-width=".75" d="M1.25 12.408h1.592L7.008 14.8a6 6 0 0 0 2.992.783m5.967-2.491 1.191-.684h1.592M10 15.583a6 6 0 0 0 2.975-.783l1.667-.975-3.067-4.6-2.209.55a3 3 0 0 1-.658.075c-.42 0-.833-.097-1.208-.283a1.242 1.242 0 0 1 .066-2.259L11.8 5.5a3.14 3.14 0 0 1 2.967.275l1.6 1.058h2.383"/><path stroke="currentColor" stroke-miterlimit="10" stroke-width=".75" d="M1.25 6.833h2.383l1.6-1.058A3.14 3.14 0 0 1 8.2 5.5l1.8.775m8.75-1.025V14M1.25 5.25V14"/></svg>