<svg xmlns="http://www.w3.org/2000/svg" width="20" height="20" fill="none" class="text-slate-400" viewBox="0 0 20 20"><path stroke="currentColor" stroke-miterlimit="10" stroke-width=".75" d="M6.025 15.425a1.592 1.592 0 1 0 0-3.183 1.592 1.592 0 0 0 0 3.183Zm7.951 0a1.592 1.592 0 1 0 0-3.183 1.592 1.592 0 0 0 0 3.183Zm-1.593-1.591H7.616"/><path stroke="currentColor" stroke-miterlimit="10" stroke-width=".75" d="M4.433 13.834H1.25V9.059h1.592l.991-2.5A2.375 2.375 0 0 1 6.05 5.084h5.192a2.37 2.37 0 0 1 1.858.891l2.5 3.084h.833a2.383 2.383 0 0 1 2.384 2.383v2.392h-3.25"/><path stroke="currentColor" stroke-miterlimit="10" stroke-width=".75" d="M10.8 7.467v1.591h4.766"/></svg>