<svg xmlns="http://www.w3.org/2000/svg" width="20" height="20" fill="none" class="text-slate-400" viewBox="0 0 20 20"><path stroke="currentColor" stroke-miterlimit="10" stroke-width=".75" d="M5.225 17.958a1.592 1.592 0 1 0 0-3.183 1.592 1.592 0 0 0 0 3.183Zm9.55 0a1.592 1.592 0 1 0 0-3.183 1.592 1.592 0 0 0 0 3.183Z"/><path stroke="currentColor" stroke-miterlimit="10" stroke-width=".75" d="M16.367 16.366h2.383v-4.774L17.5 6.425a1.584 1.584 0 0 0-1.583-1.2h-2.733v11.141m-6.367.001h6.366v-3.984H1.25v3.984h2.383"/><path stroke="currentColor" stroke-miterlimit="10" stroke-width=".75" d="m13.184 10.8 2.383.791h3.183M2.842 2.042v3.983L3.634 7.5v.533a1.2 1.2 0 0 1-1.192 1.2A1.2 1.2 0 0 1 1.25 8.008v-.391m11.933 4.767H7.616L9.2 9.2h3.983z"/><path stroke="currentColor" stroke-miterlimit="10" stroke-width=".75" d="M1.25 2.05h3.975L9.2 9.2"/></svg>