<svg xmlns="http://www.w3.org/2000/svg" width="20" height="20" fill="none" class="text-slate-400" viewBox="0 0 20 20"><g stroke="currentColor" stroke-miterlimit="10" stroke-width=".75" clip-path="url(#a)"><path d="M12.367 1.25H1.233v7.158h11.134z"/><path d="M11.567 8.408H2.025V18.75h9.542zm1.6 10.342H.434M4.417 3.633v2.392M6.8 3.633v2.392m2.384-2.392v2.392m2.391 2.383h2.384A1.6 1.6 0 0 1 15.55 10v6.366a1.59 1.59 0 0 0 1.592 1.592 1.6 1.6 0 0 0 1.592-1.591V5.224L15.55 2.042"/><path d="M17.608 4.108a1.56 1.56 0 0 0-.466 1.117 1.6 1.6 0 0 0 1.591 1.592"/></g><defs><clipPath id="a"><path fill="#fff" d="M0 0h20v20H0z"/></clipPath></defs></svg>