<svg xmlns="http://www.w3.org/2000/svg" width="48" height="48" fill="none" class="h-8 w-8 sm:h-9 sm:w-9 md:h-10 md:w-10 lg:h-12 lg:w-12" viewBox="0 0 48 48"><path fill="#2563EB" d="M10.14 1.54H24.6v.02H27c2.941 0 5.292 2.401 5.32 5.306V8.88h-3V6.888C29.304 5.595 28.257 4.56 27 4.56h-2.744a3.48 3.48 0 0 1-3.02 1.979l-.028.001h-7.71l-.043-.002A3.52 3.52 0 0 1 10.49 4.56H7.83C6.534 4.576 5.5 5.623 5.5 6.88v34.332c.016 1.293 1.063 2.328 2.32 2.328h19.156a2.34 2.34 0 0 0 2.244-2.32v-1.9h3v1.9c0 2.876-2.31 5.236-5.176 5.32H7.82c-2.941 0-5.292-2.401-5.32-5.306V6.88c0-2.941 2.402-5.292 5.306-5.32h2.334z"/><path fill="#2563EB" d="M15.46 40.82h3.82v-3h-3.82z"/><path fill="#2563EB" fill-rule="evenodd" d="M33.5 19.52a4.5 4.5 0 1 0 0 9 4.5 4.5 0 0 0 0-9m-1.5 4.5a1.5 1.5 0 1 1 3 0 1.5 1.5 0 0 1-3 0" clip-rule="evenodd"/><path fill="#2563EB" fill-rule="evenodd" d="M29.473 11.04h8.154l.768 3.024q.735.362 1.4.824l2.903-.859 4.123 7.003-2.306 2.168c.026.254.044.518.045.787q.015.435-.015.851l2.327 2.21-4.06 6.994-3.027-.861c-.471.316-.968.602-1.494.849l-.764 3.01h-8.054l-.77-3.034a11 11 0 0 1-1.415-.829l-3.008.81-4.052-6.978 2.296-2.182a8 8 0 0 1-.044-.807c0-.281.018-.556.045-.82l-2.3-2.163 4.064-6.999 3.008.856q.668-.466 1.409-.83zm2.334 3-.562 2.213-.713.282a7.7 7.7 0 0 0-1.991 1.173l-.605.487-2.225-.633-1.696 2.921 1.721 1.618-.138.796a6.6 6.6 0 0 0-.118 1.123c0 .335.044.698.116 1.092l.145.797-1.729 1.643 1.708 2.94 2.227-.599.594.479a8.3 8.3 0 0 0 2.018 1.184l.69.29.558 2.194h3.386l.566-2.227.73-.276a8.3 8.3 0 0 0 2.101-1.19l.598-.455 2.2.626 1.7-2.927-1.694-1.609.099-.756c.054-.42.083-.804.069-1.14l-.002-.033v-.033c0-.335-.044-.698-.118-1.123l-.138-.796 1.715-1.613-1.717-2.917-2.13.63-.613-.493a7.7 7.7 0 0 0-1.99-1.173l-.714-.282-.562-2.213z" clip-rule="evenodd"/></svg>